<?xml version="1.0" encoding="utf-8"?>
<!-- Generator: Adobe Illustrator 21.0.0, SVG Export Plug-In . SVG Version: 6.00 Build 0)  -->
<svg version="1.1" id="Layer_1" xmlns="http://www.w3.org/2000/svg" xmlns:xlink="http://www.w3.org/1999/xlink" x="0px" y="0px"
	 viewBox="0 0 496.5 122.2" style="enable-background:new 0 0 496.5 122.2;" xml:space="preserve">
<style type="text/css">
	.st0{fill:#FBAD50;}
	.st1{fill:#E95A51;}
	.st2{fill:#814A9D;}
	.st3{fill:#CD4A6C;}
	.st4{fill:#5368B1;}
</style>
<g>
	<path class="st0" d="M108.5,105.7c-0.3-2.2-2.4-3.7-4.8-3.4c-2.4,0.3-4.2,2.3-3.9,4.5c0.2,1.6,1.4,2.9,3.1,3.3
		c-11.4-1.4-19.3-17.9-28.2-31.5c-9.9-15.1-23.1-10.2-25.5-9.1c-2.6-0.5-16.5-2.1-22.6,14.9c-5.5,15.4-9.3,33.2-20,37.3
		c1.5-0.8,2.4-2.3,2.2-3.9c-0.3-2.2-2.4-3.7-4.8-3.4c-2.4,0.3-4.2,2.3-3.9,4.5c0.3,2.1,2.4,3.6,4.7,3.4c-0.1,0-0.1,0-0.2,0
		c0,0,46.1,0.3,45.5-44.9c10.1,44,54.8,32.8,54.8,32.8c-0.1,0-0.1,0-0.2,0C107.1,109.8,108.7,107.8,108.5,105.7z"/>
	<path class="st1" d="M46.2,64.8c-10.9,1.3-20.6-6.3-22-17.2C22.9,36.7,30.6,27,41.6,25.7c10.8-1.3,20.5,6.4,21.8,17.3
		C64.7,53.7,57,63.5,46.2,64.8z M42.3,32.6c-7,0.8-12,7.2-11.2,14.2c0.8,7,7.2,12,14.2,11.2c7-0.8,12-7.2,11.2-14.2
		C55.7,36.8,49.2,31.7,42.3,32.6z"/>
	<path class="st2" d="M66.2,21.9c0.3,2.6-1.5,4.9-4,5.2c-2.5,0.3-4.8-1.5-5.1-4c-0.3-2.5,1.5-4.9,4-5.2
		C63.7,17.5,65.9,19.3,66.2,21.9z"/>
	<path class="st3" d="M20.7,66.5c-3.5-1.8-5.9-5-7-9.4c-0.7-3-1.3-6.1-1.8-9.1c-0.4-2.7-0.8-5.5-1.2-8.2c-0.5-3.9-0.9-7.8-1.3-11.7
		C9,23.6,9.8,19.4,13.1,16c0.5-0.5,1-1,1.6-1.4l-1.1-7.7c-6,2.9-9.7,7.9-11.1,14.9C1.7,25.9,2.1,30,2.7,34.1C3,36.4,3.3,38.7,3.6,41
		l0,0C4,44.1,4.4,47.1,5,50.2c0.7,3.6,1.3,7.3,2.4,10.8c2.4,7.1,7.3,11.7,14.4,13.6L20.7,66.5z"/>
	<path class="st3" d="M83.9,40.5c-0.5-3.9-1-7.7-1.6-11.6l0,0c-0.2-1.5-0.4-3-0.6-4.5c-0.7-3.6-1.3-7.3-2.4-10.8
		C76.8,6.4,71.9,1.9,64.8,0l1.2,8.1c3.5,1.8,5.9,5,7,9.4c0.7,3,1.3,6.1,1.8,9.1c0.2,1.1,0.4,2.2,0.6,3.3l0,0
		c0.7,5.5,1.4,11,1.9,16.6c0.4,4.5-0.4,8.7-3.7,12.1c-0.5,0.5-1,1-1.6,1.4l1.1,7.7c6-2.9,9.7-7.9,11.1-14.9
		C84.9,48.7,84.4,44.6,83.9,40.5z"/>
</g>
<g>
	<path class="st4" d="M141.9,80.8h-18.1v-7.2h5.1V56h-5.1v-7.2h12.9v24.9h5.2V80.8z M127.5,38.2c0-3,2.4-5.2,5.3-5.2
		c2.9,0,5.3,2.2,5.3,5.2c0,2.9-2.4,5.1-5.3,5.1C129.8,43.4,127.5,41.1,127.5,38.2z"/>
	<path class="st4" d="M187.4,80.8h-18.1v-7.2h5.1v-10c0-5.6-2.9-8.7-7.9-8.7c-2.8,0-5.8,1.6-8.3,4.7v14.1h5.2v7.2h-18.1v-7.2h5.1V56
		h-5.1v-7.2h12.9v2.6c2.7-2.3,6-3.7,9.9-3.7c8.5,0,14.1,6.1,14.1,15.4v10.5h5.1V80.8z"/>
	<path class="st4" d="M212.5,61.8c5.1,0.9,10.2,3.6,10.2,10c0,6-4.5,10-12.3,10c-5.2,0-9-1.8-11.5-3.9v2.9h-7.1v-11l7.1,0.1l0.1-0.1
		c2.8,3.4,5.6,6,10.6,6c4.1,0,5.3-1.8,5.3-3.5c0-1.8-1.2-3.1-4.1-3.7l-5.8-0.9c-6.9-1.2-11.8-4.1-11.8-10.1c0-6.4,5.6-9.8,13.1-9.8
		c3.9,0,6.8,1.1,8.7,3v-2.1h7v9.9h-7c-2.6-2.9-4.6-4.8-8.6-4.8c-3.6,0-5,1.6-5,3.3c0,1.7,1.2,3,4.9,3.7L212.5,61.8z"/>
	<path class="st4" d="M252.4,80.5c-3.5,1.1-5.2,1.4-8,1.4c-7.6,0-12.4-5.1-12.4-13.3V56h-7.9v-7.2h7.9v-10h7.8v10h11.3V56h-11.3
		v12.5c0,4.3,2.3,6.1,6.2,6.1c1.8,0,3.7-0.3,5.3-0.8L252.4,80.5z"/>
	<path class="st4" d="M288.1,73.6h5.1v7.2h-12.9v-2.2c-2.6,1.9-6,3-9.8,3c-8.9,0-16.1-7.4-16.1-16.7c0-9.3,7.2-16.8,16.1-16.8
		c3.9,0,7.2,1.1,9.8,3v-2.2h12.9V56h-5.1V73.6z M280.3,71.1V58.5c-2.8-2.7-5.6-3.7-8.7-3.7c-5.5,0-9.5,4.7-9.5,10c0,5.3,4,10,9.5,10
		C274.7,74.8,277.5,73.8,280.3,71.1z"/>
	<path class="st4" d="M361.4,80.8h-18.1v-7.2h5.1v-10c0-5.6-2.8-8.7-7.7-8.7c-2.4,0-5.1,1.2-7.4,4.4c0.3,1.2,0.4,2.5,0.4,3.9v10.5
		h5.1v7.2h-18.1v-7.2h5.1v-10c0-5.6-2.8-8.7-7.7-8.7c-2.3,0-4.8,1.3-7,4.3v14.4h5.2v7.2h-18.1v-7.2h5.1V56h-5.1v-7.2h12.9v2.3
		c2.2-2.1,4.5-3.3,8.6-3.3c4.3,0,8,1.8,10.5,4.9c3.4-3.3,6.8-4.9,12.1-4.9c7.8,0,13.9,6.1,13.9,15.4v10.5h5.2V80.8z"/>
	<path class="st4" d="M382.4,80.8h-18.1v-7.2h5.1V56h-5.1v-7.2h12.9v24.9h5.2V80.8z M368,38.2c0-3,2.4-5.2,5.3-5.2
		c2.9,0,5.3,2.2,5.3,5.2c0,2.9-2.4,5.1-5.3,5.1C370.4,43.4,368,41.1,368,38.2z"/>
	<path class="st4" d="M420.1,82.8L420.1,82.8c0.1,9.3-7.1,15.3-16.7,15.3c-9.1,0-15.8-5.6-16.6-13.3h7.9c0.5,3.7,3.8,6.2,8.5,6.2
		c5.2,0,9.1-3,9.1-8.2v-4.4c-2.6,2-6.1,3.2-9.9,3.2c-9.3,0-16.3-7.4-16.3-16.7c0-9.3,7-16.8,16.3-16.8c3.8,0,7.2,1.2,9.9,3.2v-2.4
		h12.9V56h-5.1V82.8z M412.4,69.8V59.7c-2.2-3.5-5.6-4.9-8.8-4.9c-5.8,0-9.6,4.7-9.6,10c0,5.3,3.8,10,9.6,10
		C406.8,74.8,410.1,73.4,412.4,69.8z"/>
	<path class="st4" d="M462.1,64.8c0,9.8-7.7,17-17.3,17c-9.8,0-17.3-7.2-17.3-17c0-9.7,7.6-16.8,17.3-16.8
		C454.5,48,462.1,55.1,462.1,64.8z M454.3,64.8c0-5.4-4.1-9.7-9.5-9.7c-5.6,0-9.5,4.3-9.5,9.7c0,5.5,4,9.9,9.5,9.9
		C450.3,74.7,454.3,70.3,454.3,64.8z"/>
	<path class="st4" d="M486.4,61.8c5.1,0.9,10.2,3.6,10.2,10c0,6-4.5,10-12.3,10c-5.2,0-9-1.8-11.5-3.9v2.9h-7.1v-11l7.1,0.1l0.1-0.1
		c2.8,3.4,5.6,6,10.6,6c4.1,0,5.3-1.8,5.3-3.5c0-1.8-1.2-3.1-4.1-3.7l-5.8-0.9c-6.9-1.2-11.8-4.1-11.8-10.1c0-6.4,5.6-9.8,13.1-9.8
		c3.9,0,6.8,1.1,8.7,3v-2.1h7v9.9h-7c-2.6-2.9-4.6-4.8-8.6-4.8c-3.6,0-5,1.6-5,3.3c0,1.7,1.2,3,4.9,3.7L486.4,61.8z"/>
</g>
</svg>
