<svg xmlns="http://www.w3.org/2000/svg" viewBox="0 0 753.3 643.787">
  <defs>
    <style>
      .cls-1 {
        isolation: isolate;
      }

      .cls-2 {
        opacity: 0.2;
      }

      .cls-3 {
        fill: #ef6d87;
      }

      .cls-4 {
        fill: #90cced;
      }

      .cls-5 {
        fill: #eb2a32;
      }

      .cls-6 {
        fill: #ff4957;
      }

      .cls-7 {
        fill: #039be5;
      }

      .cls-8 {
        fill: #48423b;
      }

      .cls-9 {
        fill: #007fa2;
      }

      .cls-10 {
        fill: #fff;
      }

      .cls-11 {
        fill: #1e0e00;
        mix-blend-mode: soft-light;
      }

      .cls-12 {
        fill: #644633;
      }

      .cls-13 {
        fill: #cac8c8;
        mix-blend-mode: darken;
      }

      .cls-14 {
        fill: #efcf4b;
        opacity: 0.5;
        mix-blend-mode: multiply;
      }

      .cls-15 {
        fill: #343a41;
      }

      .cls-16 {
        fill: #3e454d;
      }

      .cls-17 {
        fill: #485059;
      }

      .cls-18 {
        fill: #e6e6e6;
      }

      .cls-19 {
        fill: #ff5349;
      }

      .cls-20 {
        fill: #dbdfde;
      }

      .cls-21 {
        fill: #e6eae9;
      }

      .cls-22 {
        fill: #637285;
      }

      .cls-23 {
        fill: #5f6d7f;
      }

      .cls-24 {
        fill: #6c7a87;
      }

      .cls-25 {
        fill: #2c3a3d;
      }

      .cls-26 {
        fill: #ffdb53;
      }

      .cls-27 {
        fill: #f0b213;
      }

      .cls-28 {
        fill: #fcdc7a;
      }

      .cls-29 {
        fill: #faf7c2;
      }

      .cls-30 {
        fill: #eceab9;
      }

      .cls-31 {
        fill: #f9f6cf;
      }

      .cls-32 {
        fill: #333c43;
      }

      .cls-33 {
        fill: #3c3c3c;
      }

      .cls-34 {
        fill: #424242;
      }

      .cls-35 {
        fill: #fafafa;
      }

      .cls-36 {
        fill: #ede8e4;
      }

      .cls-37 {
        fill: #70b773;
      }

      .cls-38 {
        fill: #0288d1;
      }

      .cls-39 {
        fill: #dbd1c8;
      }

      .cls-40 {
        fill: #616161;
      }

      .cls-41 {
        fill: #f7781e;
      }

      .cls-42 {
        fill: #ddd;
      }

      .cls-43 {
        fill: #fbfbfb;
      }

      .cls-44 {
        fill: #e5e5e5;
      }
    </style>
  </defs>
  <title>77115-OF8EVW-611 copy</title>
  <g class="cls-1">
    <g id="BACKGROUND">
      <g class="cls-2">
        <circle class="cls-3" cx="616.979" cy="516.832" r="82.188"/>
        <circle class="cls-4" cx="509.168" cy="529.713" r="108.47"/>
        <circle class="cls-5" cx="400.039" cy="478.98" r="85.466"/>
      </g>
      <g class="cls-2">
        <circle class="cls-6" cx="310.78" cy="563.673" r="80.114"/>
        <circle class="cls-7" cx="262.82" cy="533.673" r="80.114"/>
        <circle class="cls-4" cx="169.355" cy="505.738" r="80.114"/>
      </g>
      <g>
        <g class="cls-2">
          <circle class="cls-8" cx="568.19" cy="215.947" r="77.206"/>
        </g>
        <circle class="cls-9" cx="567.945" cy="215.947" r="77.206"/>
        <circle class="cls-10" cx="567.949" cy="215.948" r="61.419"/>
        <path class="cls-6" d="M581.249,209.376a64.286,64.286,0,0,0-2.244,128.533c.744.026,1.487.039,2.244.039.94,0,1.868-.026,2.794-.066a64.284,64.284,0,0,0-2.794-128.506Zm2.82,122.764c-.939.039-1.88.065-2.82.065q-1.114,0-2.231-.04a58.552,58.552,0,1,1,5.051-.025Z" transform="translate(-13.304 -57.713)"/>
        <g>
          <path class="cls-6" d="M581.254,224.11a49.551,49.551,0,1,0,49.8,49.552A49.735,49.735,0,0,0,581.254,224.11Zm0,93.366a43.815,43.815,0,1,1,44.067-43.814A43.992,43.992,0,0,1,581.254,317.476Z" transform="translate(-13.304 -57.713)"/>
          <path class="cls-6" d="M581.254,238.848c-19.476,0-35.321,15.618-35.321,34.813s15.845,34.815,35.321,34.815,35.32-15.617,35.32-34.815S600.729,238.848,581.254,238.848Zm0,63.89c-16.314,0-29.586-13.044-29.586-29.076s13.272-29.08,29.586-29.08,29.583,13.046,29.583,29.08S597.566,302.738,581.254,302.738Z" transform="translate(-13.304 -57.713)"/>
          <path class="cls-6" d="M581.254,253.582c-11.49,0-20.837,9.007-20.837,20.079s9.347,20.078,20.837,20.078,20.837-9.007,20.837-20.078S592.741,253.582,581.254,253.582Zm0,34.422c-8.327,0-15.1-6.434-15.1-14.343s6.775-14.342,15.1-14.342,15.1,6.433,15.1,14.342S589.58,288,581.254,288Z" transform="translate(-13.304 -57.713)"/>
        </g>
        <circle class="cls-6" cx="568.271" cy="215.95" r="7.582"/>
        <polygon class="cls-6" points="614.907 265.482 613.498 275.422 622.814 284.538 623.667 274.242 614.907 265.482"/>
        <polygon class="cls-6" points="617.816 262.596 627.792 261.166 636.882 270.505 626.583 271.329 617.816 262.596"/>
        <path d="M581.756,273.782" transform="translate(-13.304 -57.713)"/>
        <polygon class="cls-11" points="616.223 278.075 617.581 268.13 617.96 268.626 616.723 278.564 616.223 278.075"/>
        <polygon class="cls-11" points="619.212 281.039 620.571 271.094 620.949 271.59 619.712 281.529 619.212 281.039"/>
        <polygon class="cls-11" points="623.649 268.904 634.586 267.654 634.045 267.271 623.116 268.399 623.649 268.904"/>
        <polygon class="cls-11" points="620.27 265.51 631.211 264.293 630.67 263.908 619.739 265.004 620.27 265.51"/>
        <path class="cls-12" d="M583.083,272.108h0A2.188,2.188,0,1,0,580.1,275.3l0,0,56.88,56.647,2.9-2.9Z" transform="translate(-13.304 -57.713)"/>
        <path class="cls-13" d="M582.724,275.864l-49.415,49.918-4.9,4.859c-.688-.621-1.367-1.254-2.032-1.919-.535-.535-1.049-1.072-1.553-1.621l4.888-4.87,49.911-49.464,1.622,1.807Z" transform="translate(-13.304 -57.713)"/>
      </g>
    </g>
    <g id="DESIGNED_BY_FREEPIK" data-name="DESIGNED BY FREEPIK">
      <g>
        <g>
          <path class="cls-14" d="M237.529,478.188,197.17,301.513a4.355,4.355,0,0,0-5.215-3.275l-1.058.242-.03.005-42.49,9.706-1.268-5.551a1.659,1.659,0,0,0-1.99-1.25l-13.643,3.117a1.672,1.672,0,0,1-1.937-1.069,11.13,11.13,0,0,0-21.51,4.914,1.672,1.672,0,0,1-1.28,1.8L94.116,313.04a1.662,1.662,0,0,0-1.25,1.99l1.268,5.551L50.146,330.63a3.934,3.934,0,0,0-2.959,4.71l40.547,177.5a3.934,3.934,0,0,0,4.71,2.959l140.722-32.146h0l1.084-.248A4.355,4.355,0,0,0,237.529,478.188Zm-119.7-176.469a5.756,5.756,0,1,1-4.329,6.893A5.756,5.756,0,0,1,117.831,301.718Z" transform="translate(-13.304 -57.713)"/>
          <g>
            <g>
              <g>
                <rect class="cls-15" x="66.197" y="310.132" width="152.214" height="189.935" rx="10.25" ry="10.25" transform="translate(-99.946 -15.849) rotate(-12.868)"/>
                <path class="cls-16" d="M194.728,299.743l40.547,177.5a3.931,3.931,0,0,1-2.959,4.71L91.595,514.1a3.934,3.934,0,0,1-4.71-2.959l-40.547-177.5a3.934,3.934,0,0,1,2.959-4.71l140.722-32.146a3.934,3.934,0,0,1,4.71,2.959Z" transform="translate(-13.304 -57.713)"/>
                <path class="cls-17" d="M193.135,297.387,88.478,513.5a3.927,3.927,0,0,1-1.593-2.356l-40.547-177.5a3.934,3.934,0,0,1,2.959-4.71l140.722-32.146A3.922,3.922,0,0,1,193.135,297.387Z" transform="translate(-13.304 -57.713)"/>
                <g>
                  <polygon class="cls-10" points="176.299 246.972 211.776 402.279 200.185 420.734 78.706 448.484 39.797 278.153 176.299 246.972"/>
                  <polygon class="cls-18" points="211.776 402.279 200.185 420.734 196.753 405.711 211.776 402.279"/>
                </g>
              </g>
              <g>
                <g>
                  <g>
                    <path class="cls-18" d="M73.067,372.41,68.55,352.636l19.773-4.517,4.517,19.773Zm-.447-17.217,3,13.147,13.147-3-3-13.147Z" transform="translate(-13.304 -57.713)"/>
                    <polygon class="cls-16" points="65.943 308.704 61.712 306.046 62.841 304.248 65.274 305.775 70.987 296.679 72.786 297.809 65.943 308.704"/>
                  </g>
                  <rect class="cls-19" x="94.412" y="343.946" width="38.753" height="3.619" transform="translate(-87.446 -23.689) rotate(-12.868)"/>
                  <rect class="cls-18" x="95.265" y="344.74" width="90.943" height="3.619" transform="translate(-86.946 -17.668) rotate(-12.868)"/>
                  <rect class="cls-18" x="96.934" y="352.901" width="75.722" height="3.619" transform="translate(-88.913 -18.787) rotate(-12.868)"/>
                </g>
                <g>
                  <g>
                    <path class="cls-18" d="M79.94,402.5l-4.517-19.773L95.2,378.207l4.517,19.773Zm-.447-17.217,3,13.147,13.147-3-3-13.147Z" transform="translate(-13.304 -57.713)"/>
                    <polygon class="cls-16" points="72.816 338.792 68.585 336.134 69.715 334.336 72.147 335.863 77.86 326.768 79.659 327.897 72.816 338.792"/>
                    <polygon class="cls-16" points="86.714 398.826 82.483 396.169 83.613 394.37 86.045 395.898 91.758 386.802 93.557 387.932 86.714 398.826"/>
                  </g>
                  <rect class="cls-19" x="101.285" y="374.034" width="38.753" height="3.619" transform="translate(-93.974 -21.403) rotate(-12.868)"/>
                  <rect class="cls-18" x="102.139" y="374.828" width="90.943" height="3.619" transform="translate(-93.474 -15.382) rotate(-12.868)"/>
                  <rect class="cls-18" x="104.396" y="388.211" width="28.821" height="3.619" transform="translate(-97.178 -21.46) rotate(-12.868)"/>
                </g>
                <g>
                  <g>
                    <path class="cls-18" d="M86.814,432.586,82.3,412.813,102.07,408.3l4.517,19.773Zm-.447-17.216,3,13.147,13.147-3-3-13.147Z" transform="translate(-13.304 -57.713)"/>
                    <g>
                      <rect class="cls-16" x="88.54" y="419.379" width="11.803" height="2.124" transform="translate(-325.117 219.037) rotate(-57.862)"/>
                      <rect class="cls-16" x="93.38" y="414.539" width="2.124" height="11.803" transform="translate(-325.131 219.078) rotate(-57.867)"/>
                    </g>
                  </g>
                  <rect class="cls-19" x="108.158" y="404.122" width="38.753" height="3.619" transform="translate(-100.502 -19.117) rotate(-12.868)"/>
                  <rect class="cls-18" x="109.012" y="404.916" width="90.943" height="3.619" transform="translate(-100.002 -13.096) rotate(-12.868)"/>
                  <rect class="cls-18" x="110.861" y="414.682" width="61.31" height="3.619" transform="translate(-102.502 -15.738) rotate(-12.868)"/>
                </g>
                <g>
                  <path class="cls-18" d="M93.687,462.674,89.17,442.9l19.773-4.517,4.517,19.773Zm-.447-17.217,3,13.147,13.147-3-3-13.147Z" transform="translate(-13.304 -57.713)"/>
                  <rect class="cls-19" x="115.031" y="434.211" width="38.753" height="3.619" transform="translate(-107.03 -16.831) rotate(-12.868)"/>
                  <rect class="cls-18" x="115.885" y="435.004" width="90.943" height="3.619" transform="translate(-106.53 -10.809) rotate(-12.868)"/>
                  <rect class="cls-18" x="117.435" y="442.121" width="85.101" height="3.619" transform="translate(-108.149 -10.936) rotate(-12.868)"/>
                </g>
                <g>
                  <g>
                    <path class="cls-18" d="M100.56,492.762l-4.517-19.773,19.773-4.517,4.517,19.773Zm-.447-17.217,3,13.147,13.147-3-3-13.147Z" transform="translate(-13.304 -57.713)"/>
                    <polygon class="cls-16" points="93.436 429.056 89.205 426.399 90.334 424.6 92.767 426.128 98.48 417.032 100.278 418.162 93.436 429.056"/>
                  </g>
                  <rect class="cls-19" x="121.905" y="464.299" width="38.753" height="3.619" transform="translate(-113.558 -14.544) rotate(-12.868)"/>
                  <rect class="cls-18" x="122.758" y="465.092" width="90.943" height="3.619" transform="translate(-113.058 -8.523) rotate(-12.868)"/>
                  <rect class="cls-18" x="124.426" y="473.253" width="75.722" height="3.619" transform="translate(-115.025 -9.642) rotate(-12.868)"/>
                </g>
              </g>
            </g>
            <g>
              <path class="cls-20" d="M145.77,300.091a1.666,1.666,0,0,0-1.5-.4l-13.643,3.117a1.672,1.672,0,0,1-1.937-1.069,11.13,11.13,0,0,0-21.51,4.914,1.672,1.672,0,0,1-1.28,1.8L93.266,311.34a1.662,1.662,0,0,0-1.25,1.99L95.2,327.265a10.151,10.151,0,0,0,12.141,7.626l34.476-7.876a10.139,10.139,0,0,0,7.626-12.141l-3.183-13.935A1.668,1.668,0,0,0,145.77,300.091Zm-28.789-.072a5.756,5.756,0,1,1-4.33,6.893A5.756,5.756,0,0,1,116.981,300.019Z" transform="translate(-13.304 -57.713)"/>
              <path class="cls-21" d="M144.27,299.689l-13.643,3.117a1.672,1.672,0,0,1-1.937-1.069,11.13,11.13,0,0,0-21.51,4.914,1.672,1.672,0,0,1-1.28,1.8L93.266,311.34a1.662,1.662,0,0,0-1.25,1.99L95.2,327.265a10.061,10.061,0,0,0,3.87,5.9l46.7-33.072A1.666,1.666,0,0,0,144.27,299.689Zm-24.725,11.552a5.756,5.756,0,1,1,4.33-6.893A5.758,5.758,0,0,1,119.545,311.242Z" transform="translate(-13.304 -57.713)"/>
            </g>
          </g>
        </g>
        <g>
          <path class="cls-14" d="M104.071,411.749h0l-11.983,7.933L20.035,504.1l-4.943,5.791a5.876,5.876,0,0,0,.654,8.285l.692.591a5.876,5.876,0,0,0,8.285-.654l5.371-6.293,2.937-3.441-.352-.487,68.688-80.47,6.305-12.593,3.555-7.812Z" transform="translate(-13.304 -57.713)"/>
          <g>
            <polygon class="cls-22" points="12.143 457.068 87.848 368.378 93.801 355.297 97.357 347.485 78.216 360.156 2.512 448.847 12.143 457.068"/>
            <rect class="cls-23" x="3.489" y="467.167" width="116.607" height="3.964" transform="translate(-348.462 153.851) rotate(-49.517)"/>
            <rect class="cls-24" x="-3.127" y="461.519" width="116.607" height="3.964" transform="translate(-346.487 146.837) rotate(-49.517)"/>
            <path class="cls-25" d="M13.787,504.2H26.45a0,0,0,0,1,0,0v7.818a6.331,6.331,0,0,1-6.331,6.331h0a6.331,6.331,0,0,1-6.331-6.331V504.2A0,0,0,0,1,13.787,504.2Z" transform="translate(323.443 51.626) rotate(40.483)"/>
            <rect class="cls-26" x="19.849" y="501.909" width="12.663" height="4.524" transform="translate(320.284 45.991) rotate(40.483)"/>
            <rect class="cls-27" x="27.507" y="504.733" width="3.964" height="4.524" transform="translate(322.911 44.52) rotate(40.483)"/>
            <rect class="cls-28" x="20.89" y="499.085" width="3.964" height="4.524" transform="translate(317.657 47.461) rotate(40.483)"/>
            <polygon class="cls-29" points="87.848 368.378 97.357 347.485 78.216 360.156 87.848 368.378"/>
            <polygon class="cls-30" points="87.848 368.378 93.801 355.297 84.833 365.804 87.848 368.378"/>
            <polygon class="cls-31" points="78.216 360.156 90.2 352.223 81.231 362.73 78.216 360.156"/>
            <polygon class="cls-32" points="93.801 355.297 97.357 347.485 90.2 352.223 93.801 355.297"/>
          </g>
        </g>
      </g>
      <path class="cls-33" d="M766.578,592.088V570.982H752.139l-67.313-89.2c-3.813-5.053-18.279-9.05-32.4-9.05H147.577c-14.124,0-28.591,4-32.4,9.05l-67.313,89.2H33.4v22.079h.026c.479,5.911,9.882,10.209,24.71,10.209H741.868C757.5,603.269,767.1,598.495,766.578,592.088Z" transform="translate(-13.304 -57.713)"/>
      <path class="cls-34" d="M115.174,459.577,35.338,565.372c-6.447,8.543,3.665,15.693,22.794,15.693H741.868c19.129,0,29.24-7.15,22.794-15.693L684.826,459.577c-3.813-5.053-18.279-9.05-32.4-9.05H147.577C133.453,450.527,118.986,454.525,115.174,459.577Z" transform="translate(-13.304 -57.713)"/>
      <g>
        <polygon class="cls-35" points="678.504 516.832 94.887 516.832 166.227 396.451 607.165 396.451 678.504 516.832"/>
        <path class="cls-36" d="M255.231,487.823l-8.636,24.2h94.08l4.106-29.751H271.8C269.512,485.061,262.894,487.288,255.231,487.823Z" transform="translate(-13.304 -57.713)"/>
        <path class="cls-36" d="M348.659,454.164H267.242l-7.227,20.252c7.067.5,12.1,2.618,12.6,5.334h72.517Z" transform="translate(-13.304 -57.713)"/>
        <path class="cls-7" d="M265.788,481.007c.793-2.357-3.672-4.255-9.945-4.255s-12.124,1.9-13.053,4.255c-.94,2.385,3.5,4.347,9.911,4.347S264.985,483.392,265.788,481.007Z" transform="translate(-13.304 -57.713)"/>
        <path class="cls-37" d="M294.417,470.416c.432-1.587-2.756-2.869-7.1-2.869s-8.282,1.282-8.779,2.869,2.678,2.912,7.089,2.912S293.982,472.016,294.417,470.416Z" transform="translate(-13.304 -57.713)"/>
        <polygon class="cls-36" points="224.917 457.262 130.189 457.262 121.528 471.878 219.454 471.878 224.917 457.262"/>
        <polygon class="cls-36" points="338.548 422.037 439.866 422.037 436.445 396.451 341.646 396.451 338.548 422.037"/>
        <polygon class="cls-37" points="444.576 457.262 232.237 457.262 216.737 500.698 450.385 500.698 444.576 457.262"/>
        <polygon class="cls-7" points="571.347 396.451 505.915 396.451 524.456 454.311 600.065 454.311 571.347 396.451"/>
        <path class="cls-36" d="M162.873,482.273l-17.631,29.751h94.081l9.046-24.2c-7.274-.534-12.265-2.761-12.519-5.55Z" transform="translate(-13.304 -57.713)"/>
        <path class="cls-36" d="M260.95,454.164H179.531L164.368,479.75h72.517c2.482-2.716,9.061-4.833,16.5-5.334Z" transform="translate(-13.304 -57.713)"/>
        <polygon class="cls-36" points="440.203 424.56 338.243 424.56 334.64 454.311 444.182 454.311 440.203 424.56"/>
        <polygon class="cls-36" points="215.443 504.322 210.979 516.832 452.542 516.832 450.87 504.322 215.443 504.322"/>
        <polygon class="cls-36" points="451.897 457.262 460.87 516.832 536.164 516.832 518.082 457.262 451.897 457.262"/>
        <polygon class="cls-36" points="119.633 475.075 94.887 516.832 202.651 516.832 218.259 475.075 119.633 475.075"/>
        <polygon class="cls-7" points="525.402 457.262 544.492 516.832 631.096 516.832 601.529 457.262 525.402 457.262"/>
        <polygon class="cls-36" points="639.424 516.832 678.504 516.832 665.356 494.645 628.037 494.645 639.424 516.832"/>
        <polygon class="cls-36" points="626.251 491.165 663.294 491.165 643.202 457.262 608.85 457.262 626.251 491.165"/>
        <polygon class="cls-36" points="607.335 454.311 641.453 454.311 607.165 396.451 577.639 396.451 607.335 454.311"/>
        <polygon class="cls-36" points="507.389 422.037 499.623 396.451 442.736 396.451 446.591 422.037 507.389 422.037"/>
        <polygon class="cls-36" points="508.155 424.56 446.971 424.56 451.452 454.311 517.186 454.311 508.155 424.56"/>
        <polygon class="cls-38" points="605.586 465.434 528.021 465.434 525.402 457.262 601.529 457.262 605.586 465.434"/>
        <g>
          <path class="cls-37" d="M165.073,495.3c-1.875,0-3.736.59-4.157,1.32s.764,1.328,2.651,1.328,3.751-.6,4.161-1.328S166.948,495.3,165.073,495.3Z" transform="translate(-13.304 -57.713)"/>
          <path class="cls-37" d="M179.19,495.3c-1.875,0-3.716.59-4.112,1.32s.809,1.328,2.7,1.328,3.731-.6,4.116-1.328S181.066,495.3,179.19,495.3Z" transform="translate(-13.304 -57.713)"/>
          <path class="cls-37" d="M193.307,495.3c-1.875,0-3.7.59-4.066,1.32s.855,1.328,2.742,1.328,3.71-.6,4.071-1.328S195.183,495.3,193.307,495.3Z" transform="translate(-13.304 -57.713)"/>
          <path class="cls-37" d="M207.425,495.3c-1.875,0-3.675.59-4.021,1.32s.9,1.328,2.787,1.328,3.69-.6,4.025-1.328S209.3,495.3,207.425,495.3Z" transform="translate(-13.304 -57.713)"/>
          <path class="cls-37" d="M221.542,495.3c-1.875,0-3.655.59-3.976,1.32s.946,1.328,2.833,1.328,3.67-.6,3.98-1.328S223.417,495.3,221.542,495.3Z" transform="translate(-13.304 -57.713)"/>
          <path class="cls-37" d="M235.659,495.3c-1.875,0-3.635.59-3.931,1.32s.991,1.328,2.878,1.328,3.649-.6,3.935-1.328S237.534,495.3,235.659,495.3Z" transform="translate(-13.304 -57.713)"/>
        </g>
        <polygon class="cls-37" points="607.335 454.311 641.453 454.311 625.648 427.641 593.647 427.641 607.335 454.311"/>
        <polygon class="cls-39" points="130.289 468.934 135.412 460.053 216.997 460.053 213.537 468.934 130.289 468.934"/>
        <polygon class="cls-39" points="391.272 419.711 391.027 398.511 430.815 398.511 433.315 419.711 391.272 419.711"/>
        <polygon class="cls-39" points="341.712 451.593 344.308 426.944 373.58 426.944 372.777 451.593 341.712 451.593"/>
        <polygon class="cls-39" points="290.177 451.593 295.747 426.944 324.793 426.944 321.002 451.593 290.177 451.593"/>
        <polygon class="cls-39" points="468.05 513.269 462.561 480.288 517.875 480.288 527.366 513.269 468.05 513.269"/>
        <polygon class="cls-39" points="461.161 471.878 459.565 462.287 512.695 462.287 515.455 471.878 461.161 471.878"/>
        <polygon class="cls-39" points="104.715 513.269 125.001 478.101 209.966 478.101 196.267 513.269 104.715 513.269"/>
        <polygon class="cls-39" points="645.312 513.269 637.202 497.941 659.834 497.941 668.676 513.269 645.312 513.269"/>
        <polygon class="cls-39" points="631.924 487.963 617.158 460.053 637.979 460.053 654.079 487.963 631.924 487.963"/>
        <polygon class="cls-39" points="596.341 420.704 584.601 398.511 602.48 398.511 615.282 420.704 596.341 420.704"/>
        <polygon class="cls-39" points="452.48 419.711 450.667 408.819 497.309 408.819 500.444 419.711 452.48 419.711"/>
        <polygon class="cls-39" points="457.785 451.593 454.651 432.762 504.199 432.762 509.618 451.593 457.785 451.593"/>
        <g>
          <polygon class="cls-39" points="140.292 451.593 220.292 451.593 223.606 443.087 145.199 443.087 140.292 451.593"/>
          <polygon class="cls-39" points="210.727 426.944 154.51 426.944 149.978 434.801 207.292 434.801 210.727 426.944"/>
        </g>
        <polygon class="cls-39" points="268.214 426.944 246.73 434.801 244.878 440.23 281.493 440.23 284.855 426.944 268.214 426.944"/>
        <polygon class="cls-39" points="200.333 413.425 207.478 398.511 240.971 398.511 235.161 413.425 200.333 413.425"/>
        <polygon class="cls-39" points="191.622 398.511 170.911 398.511 158.682 419.711 180.567 419.711 191.622 398.511"/>
        <polygon class="cls-39" points="259.107 398.511 256.611 405.829 294.067 405.829 290.696 419.711 325.905 419.711 329.165 398.511 259.107 398.511"/>
        <polygon class="cls-39" points="241.003 451.593 243.904 443.087 280.77 443.087 278.618 451.593 241.003 451.593"/>
      </g>
      <path class="cls-40" d="M680.1,497.943c11.158,0,22.773,3.557,26,8.029,3.3,4.569-3.375,8.345-14.973,8.345s-23.36-3.776-26.216-8.345C662.115,501.5,668.937,497.943,680.1,497.943Z" transform="translate(-13.304 -57.713)"/>
      <path class="cls-40" d="M115.659,493.3,97.571,519.453c-1.233,1.783,1.3,3.24,5.661,3.24s8.856-1.456,10.026-3.24l17.15-26.155c1.025-1.564-1.428-2.823-5.472-2.823S116.741,491.734,115.659,493.3Z" transform="translate(-13.304 -57.713)"/>
      <g>
        <polygon class="cls-6" points="691.656 297.382 690.117 308.244 700.296 318.204 701.228 306.954 691.656 297.382"/>
        <polygon class="cls-6" points="694.835 294.229 705.735 292.666 715.667 302.871 704.415 303.772 694.835 294.229"/>
        <polygon class="cls-11" points="697.517 297.414 709.101 296.125 708.672 295.684 696.937 296.86 697.517 297.414"/>
        <path class="cls-12" d="M655.652,299.276h0c-.434-.442-5.875-2.318-5.875-2.318s2.106,5.368,2.612,5.808l-.005.006,62.15,61.894L717.7,361.5Z" transform="translate(-13.304 -57.713)"/>
        <polygon class="cls-6" points="685.575 354.186 684.036 365.048 694.214 375.008 695.146 363.758 685.575 354.186"/>
        <polygon class="cls-6" points="688.753 351.033 699.653 349.47 709.586 359.675 698.333 360.576 688.753 351.033"/>
        <polygon class="cls-11" points="687.013 367.946 688.497 357.08 688.911 357.622 687.559 368.481 687.013 367.946"/>
        <polygon class="cls-11" points="690.279 371.185 691.764 360.319 692.177 360.861 690.825 371.72 690.279 371.185"/>
        <polygon class="cls-11" points="695.127 357.925 706.624 356.633 706.177 356.173 694.545 357.374 695.127 357.925"/>
        <polygon class="cls-11" points="691.435 354.218 703.019 352.929 702.59 352.488 690.855 353.664 691.435 354.218"/>
        <path class="cls-12" d="M649.57,356.08h0c-.434-.442-5.875-2.318-5.875-2.318s2.106,5.368,2.612,5.808l-.005.006,62.15,61.894,3.164-3.163Z" transform="translate(-13.304 -57.713)"/>
        <polygon class="cls-11" points="693.094 311.142 694.579 300.276 694.993 300.818 693.641 311.677 693.094 311.142"/>
        <polygon class="cls-11" points="696.361 314.381 697.845 303.515 698.259 304.056 696.907 314.916 696.361 314.381"/>
        <polygon class="cls-11" points="701.209 301.121 712.706 299.829 712.259 299.369 700.627 300.57 701.209 301.121"/>
        <polygon class="cls-6" points="615.995 346.581 614.456 357.443 624.635 367.403 625.567 356.153 615.995 346.581"/>
        <polygon class="cls-6" points="619.174 343.428 630.074 341.865 640.006 352.07 628.754 352.971 619.174 343.428"/>
        <polygon class="cls-11" points="617.433 360.341 618.917 349.475 619.332 350.017 617.98 360.876 617.433 360.341"/>
        <polygon class="cls-11" points="620.7 363.58 622.184 352.714 622.598 353.255 621.246 364.115 620.7 363.58"/>
        <polygon class="cls-11" points="625.548 350.32 637.045 349.028 636.598 348.568 624.966 349.769 625.548 350.32"/>
        <polygon class="cls-11" points="621.856 346.613 633.44 345.324 633.011 344.883 621.275 346.059 621.856 346.613"/>
        <path class="cls-12" d="M579.991,348.475h0c-.434-.442-5.875-2.318-5.875-2.318s2.106,5.368,2.612,5.808l-.005.006,62.15,61.894,3.164-3.163Z" transform="translate(-13.304 -57.713)"/>
      </g>
      <g>
        <g>
          <g>
            <rect class="cls-41" x="128.653" y="406.26" width="88.015" height="64.121" rx="3.969" ry="3.969"/>
            <polygon class="cls-41" points="140.873 457.14 173.139 490.234 205.405 457.14 140.873 457.14"/>
          </g>
          <path class="cls-10" d="M187.835,492.591a8.568,8.568,0,0,0-6.216-7.283,10.156,10.156,0,0,0-2.182-.269,8.693,8.693,0,0,0-5.6,2.107,7.133,7.133,0,0,0-1.761,2.026s0-.008-.006-.012-.005.007-.005.012a7.135,7.135,0,0,0-1.746-2.042,8.683,8.683,0,0,0-5.58-2.146,10.214,10.214,0,0,0-2.189.252c-3.471.789-5.485,3.976-5.94,7.239-.352,2.525.7,5.82,4.109,9.311a119.093,119.093,0,0,0,10.859,9.634l.733.58.411-.24a110.673,110.673,0,0,0,10.931-9.217C187.091,499.08,188.169,495.122,187.835,492.591Z" transform="translate(-13.304 -57.713)"/>
          <path class="cls-10" d="M197.921,499.313q0-7.065,2.746-10.564t8.123-3.5a10.808,10.808,0,0,1,2.918.312V487.9a9.36,9.36,0,0,0-2.885-.409,7.278,7.278,0,0,0-5.885,2.4q-2.032,2.4-2.229,7.549h.2a6.276,6.276,0,0,1,5.705-2.819,6.7,6.7,0,0,1,5.09,1.95,7.355,7.355,0,0,1,1.86,5.295,8.164,8.164,0,0,1-2.041,5.877,7.263,7.263,0,0,1-5.517,2.14,7.089,7.089,0,0,1-5.9-2.795Q197.921,504.3,197.921,499.313Zm8.049,8.263a4.553,4.553,0,0,0,3.615-1.468,6.234,6.234,0,0,0,1.287-4.237,5.467,5.467,0,0,0-1.2-3.737,4.508,4.508,0,0,0-3.574-1.36,6.031,6.031,0,0,0-2.705.606,5.011,5.011,0,0,0-1.959,1.672,3.866,3.866,0,0,0-.729,2.213,7.59,7.59,0,0,0,.656,3.147,5.547,5.547,0,0,0,1.861,2.312A4.636,4.636,0,0,0,205.97,507.575Z" transform="translate(-13.304 -57.713)"/>
        </g>
        <g>
          <g>
            <rect class="cls-41" x="400.174" y="404.9" width="65.053" height="47.393" rx="3.969" ry="3.969"/>
            <polygon class="cls-41" points="409.206 442.507 433.055 466.967 456.903 442.507 409.206 442.507"/>
          </g>
          <path class="cls-10" d="M467.116,490.894h-2.629v4.071h-1.927v-4.071h-8.614v-1.757l8.408-11.982h2.133v11.91h2.629Zm-4.556-1.829v-5.889q0-1.733.121-3.914h-.1a18.17,18.17,0,0,1-1.091,1.927l-5.537,7.876Z" transform="translate(-13.304 -57.713)"/>
          <path class="cls-10" d="M443.388,491.206a10.073,10.073,0,1,0-3.783,3.553l5.1,1.367Z" transform="translate(-13.304 -57.713)"/>
        </g>
        <g>
          <g>
            <rect class="cls-41" x="235.128" y="297.849" width="200.453" height="81.4" rx="5.316" ry="5.316"/>
            <polygon class="cls-41" points="294.393 362.441 335.354 404.453 376.316 362.441 294.393 362.441"/>
          </g>
          <path class="cls-10" d="M295.92,391.825a9.385,9.385,0,0,0-6.808-7.977,11.125,11.125,0,0,0-2.391-.294,9.523,9.523,0,0,0-6.133,2.308,7.815,7.815,0,0,0-1.929,2.219s0-.009-.006-.013-.006.007-.006.013a7.816,7.816,0,0,0-1.912-2.237,9.51,9.51,0,0,0-6.112-2.351,11.193,11.193,0,0,0-2.4.276c-3.8.865-6.008,4.355-6.506,7.928-.386,2.766.765,6.375,4.5,10.2a130.441,130.441,0,0,0,11.893,10.552l.8.636.451-.263a121.232,121.232,0,0,0,11.973-10.1C295.106,398.933,296.286,394.6,295.92,391.825Z" transform="translate(-13.304 -57.713)"/>
          <g>
            <path class="cls-10" d="M320.619,410.408H303.364v-2.567l6.913-6.949a50.912,50.912,0,0,0,4.166-4.561,11.636,11.636,0,0,0,1.508-2.657,7.616,7.616,0,0,0,.5-2.783,4.413,4.413,0,0,0-1.274-3.331,4.885,4.885,0,0,0-3.538-1.23,8.9,8.9,0,0,0-3.1.539,12.357,12.357,0,0,0-3.259,1.957l-1.58-2.029a12.1,12.1,0,0,1,7.9-3.017,8.346,8.346,0,0,1,5.8,1.895,6.514,6.514,0,0,1,2.1,5.09,9.829,9.829,0,0,1-1.4,4.938,31.369,31.369,0,0,1-5.243,6.177l-5.746,5.62v.144h13.5Z" transform="translate(-13.304 -57.713)"/>
            <path class="cls-10" d="M333.08,383.78a8.9,8.9,0,0,1,5.692,1.67,5.569,5.569,0,0,1,2.1,4.615,5.746,5.746,0,0,1-1.2,3.537,10.625,10.625,0,0,1-3.843,2.909,12.922,12.922,0,0,1,4.543,3.205,6.036,6.036,0,0,1,1.347,3.887,6.515,6.515,0,0,1-2.28,5.217,9.311,9.311,0,0,1-6.249,1.947,10.009,10.009,0,0,1-6.464-1.84,6.341,6.341,0,0,1-2.263-5.216q0-4.507,5.495-7.021a10.139,10.139,0,0,1-3.555-3.025,6.436,6.436,0,0,1-1.078-3.636,5.54,5.54,0,0,1,2.11-4.552A8.751,8.751,0,0,1,333.08,383.78Zm-5.674,20a4.061,4.061,0,0,0,1.5,3.357,6.562,6.562,0,0,0,4.21,1.2,6.273,6.273,0,0,0,4.166-1.257,4.268,4.268,0,0,0,1.49-3.447,4.2,4.2,0,0,0-1.4-3.1,14.3,14.3,0,0,0-4.884-2.63,10.624,10.624,0,0,0-3.878,2.541A4.922,4.922,0,0,0,327.406,403.782Zm5.638-17.578a5.286,5.286,0,0,0-3.52,1.077,3.571,3.571,0,0,0-1.275,2.873,4.11,4.11,0,0,0,1.06,2.837,11.06,11.06,0,0,0,3.914,2.37,9.81,9.81,0,0,0,3.636-2.316,4.292,4.292,0,0,0,1.068-2.891,3.534,3.534,0,0,0-1.3-2.882A5.487,5.487,0,0,0,333.044,386.2Z" transform="translate(-13.304 -57.713)"/>
          </g>
          <g>
            <path class="cls-10" d="M410.216,408.421h-2.908v-18.71q0-2.334.144-4.417-.378.377-.844.79t-4.273,3.5l-1.58-2.047,6.948-5.369h2.514Z" transform="translate(-13.304 -57.713)"/>
            <path class="cls-10" d="M436.467,388.346a5.986,5.986,0,0,1-1.41,4.112,7.055,7.055,0,0,1-4,2.137v.144a7.512,7.512,0,0,1,4.687,2.011,5.918,5.918,0,0,1,1.526,4.237,6.875,6.875,0,0,1-2.6,5.773q-2.6,2.02-7.4,2.02a21.48,21.48,0,0,1-3.815-.313,13.1,13.1,0,0,1-3.367-1.1v-2.837a17.184,17.184,0,0,0,7.29,1.724q6.806,0,6.806-5.333,0-4.776-7.506-4.776h-2.586v-2.568h2.622a7.894,7.894,0,0,0,4.866-1.355,4.45,4.45,0,0,0,1.795-3.762,3.708,3.708,0,0,0-1.319-3.017,5.44,5.44,0,0,0-3.582-1.1,11.054,11.054,0,0,0-3.25.467,14.571,14.571,0,0,0-3.483,1.724l-1.509-2.011a12.565,12.565,0,0,1,3.727-2,13.537,13.537,0,0,1,4.443-.728,9.077,9.077,0,0,1,5.943,1.751A5.9,5.9,0,0,1,436.467,388.346Z" transform="translate(-13.304 -57.713)"/>
          </g>
          <path class="cls-10" d="M388.94,402.852a14.927,14.927,0,1,0-5.606,5.265l7.559,2.026Z" transform="translate(-13.304 -57.713)"/>
        </g>
        <g>
          <g>
            <rect class="cls-41" x="584.029" y="360.846" width="88.015" height="64.121" rx="3.969" ry="3.969"/>
            <polygon class="cls-41" points="596.25 411.727 628.516 444.821 660.782 411.727 596.25 411.727"/>
          </g>
          <g>
            <circle class="cls-10" cx="613.966" cy="388.354" r="10.284"/>
            <path class="cls-10" d="M635.316,459.231h-15.94c-4.079,0-7.416,3.085-7.416,6.856h30.772C642.732,462.316,639.395,459.231,635.316,459.231Z" transform="translate(-13.304 -57.713)"/>
          </g>
          <path class="cls-10" d="M666.428,464.146h-2.655V447.064q0-2.131.131-4.033-.344.344-.771.722t-3.9,3.2l-1.442-1.869,6.344-4.9h2.295Z" transform="translate(-13.304 -57.713)"/>
        </g>
      </g>
      <path class="cls-42" d="M415.266,346H413.9v-1.37a.648.648,0,0,0-.648-.648h0a.648.648,0,0,0-.648.648V346h-1.37a.648.648,0,1,0,0,1.3h1.37v1.37a.648.648,0,0,0,.648.648h0a.648.648,0,0,0,.648-.648v-1.37h1.37a.648.648,0,0,0,0-1.3Z" transform="translate(-13.304 -57.713)"/>
      <path class="cls-42" d="M391.333,340.663h-1.37v-1.37a.648.648,0,0,0-.648-.648h0a.648.648,0,0,0-.648.648v1.37H387.3a.648.648,0,0,0,0,1.3h1.37v1.37a.648.648,0,0,0,.648.648h0a.648.648,0,0,0,.648-.648v-1.37h1.37a.648.648,0,0,0,0-1.3Z" transform="translate(-13.304 -57.713)"/>
      <path class="cls-43" d="M551.5,262.488h-1.37v-1.37a.648.648,0,0,0-.648-.648h0a.648.648,0,0,0-.648.648v1.37h-1.37a.648.648,0,1,0,0,1.3h1.37v1.37a.648.648,0,0,0,.648.648h0a.648.648,0,0,0,.648-.648v-1.37h1.37a.648.648,0,0,0,0-1.3Z" transform="translate(-13.304 -57.713)"/>
      <path class="cls-43" d="M198.824,299.894h-1.37v-1.37a.648.648,0,0,0-.648-.648h0a.648.648,0,0,0-.648.648v1.37h-1.37a.648.648,0,1,0,0,1.3h1.37v1.37a.648.648,0,0,0,.648.648h0a.648.648,0,0,0,.648-.648v-1.37h1.37a.648.648,0,0,0,0-1.3Z" transform="translate(-13.304 -57.713)"/>
      <g class="cls-2">
        <g>
          <path class="cls-4" d="M390.66,265.3a9.286,9.286,0,0,1,9.286,9.286H381.374A9.286,9.286,0,0,1,390.66,265.3Z" transform="translate(-13.304 -57.713)"/>
          <path class="cls-4" d="M416.95,257.579a17,17,0,0,1,17,17H399.946A17,17,0,0,1,416.95,257.579Z" transform="translate(-13.304 -57.713)"/>
        </g>
        <g>
          <path class="cls-4" d="M647.279,212.71A9.286,9.286,0,0,1,656.565,222H637.994A9.286,9.286,0,0,1,647.279,212.71Z" transform="translate(-13.304 -57.713)"/>
          <path class="cls-4" d="M673.569,204.992a17,17,0,0,1,17,17H656.565A17,17,0,0,1,673.569,204.992Z" transform="translate(-13.304 -57.713)"/>
        </g>
        <g>
          <path class="cls-7" d="M311.181,175.742a9.286,9.286,0,0,1,9.286,9.286H301.9A9.286,9.286,0,0,1,311.181,175.742Z" transform="translate(-13.304 -57.713)"/>
          <path class="cls-7" d="M337.471,168.023a17,17,0,0,1,17,17H320.466A17,17,0,0,1,337.471,168.023Z" transform="translate(-13.304 -57.713)"/>
        </g>
        <g>
          <path class="cls-6" d="M578.874,69.479A23.676,23.676,0,0,0,555.2,93.155h47.353A23.676,23.676,0,0,0,578.874,69.479Z" transform="translate(-13.304 -57.713)"/>
          <path class="cls-6" d="M469.641,78.483a14.672,14.672,0,0,0-14.672,14.672h29.345A14.672,14.672,0,0,0,469.641,78.483Z" transform="translate(-13.304 -57.713)"/>
          <path class="cls-6" d="M519.756,57.713a35.442,35.442,0,0,0-35.442,35.442H555.2A35.442,35.442,0,0,0,519.756,57.713Z" transform="translate(-13.304 -57.713)"/>
        </g>
        <g>
          <path class="cls-4" d="M249.792,99.707a10.334,10.334,0,0,0-10.334,10.334h20.668A10.334,10.334,0,0,0,249.792,99.707Z" transform="translate(-13.304 -57.713)"/>
          <path class="cls-4" d="M220.533,91.116a18.925,18.925,0,0,0-18.925,18.925h37.849A18.925,18.925,0,0,0,220.533,91.116Z" transform="translate(-13.304 -57.713)"/>
        </g>
        <g>
          <path class="cls-5" d="M142.945,242.542a10.334,10.334,0,0,0-10.334,10.334h20.668A10.334,10.334,0,0,0,142.945,242.542Z" transform="translate(-13.304 -57.713)"/>
          <path class="cls-5" d="M113.686,233.952a18.925,18.925,0,0,0-18.924,18.924H132.61A18.925,18.925,0,0,0,113.686,233.952Z" transform="translate(-13.304 -57.713)"/>
        </g>
        <g>
          <path class="cls-41" d="M254.909,292.972a10.334,10.334,0,0,0-10.334,10.334h20.668A10.334,10.334,0,0,0,254.909,292.972Z" transform="translate(-13.304 -57.713)"/>
          <path class="cls-41" d="M225.65,284.382a18.925,18.925,0,0,0-18.924,18.925h37.849A18.925,18.925,0,0,0,225.65,284.382Z" transform="translate(-13.304 -57.713)"/>
        </g>
        <g>
          <path class="cls-3" d="M340.124,321.749a7.976,7.976,0,0,0-7.976,7.976H348.1A7.976,7.976,0,0,0,340.124,321.749Z" transform="translate(-13.304 -57.713)"/>
          <path class="cls-3" d="M317.543,315.119a14.606,14.606,0,0,0-14.606,14.606h29.211A14.606,14.606,0,0,0,317.543,315.119Z" transform="translate(-13.304 -57.713)"/>
        </g>
        <g>
          <path class="cls-4" d="M549.415,368.518a10.334,10.334,0,0,0-10.334,10.334h20.668A10.334,10.334,0,0,0,549.415,368.518Z" transform="translate(-13.304 -57.713)"/>
          <path class="cls-4" d="M520.156,359.928a18.925,18.925,0,0,0-18.925,18.925h37.849A18.925,18.925,0,0,0,520.156,359.928Z" transform="translate(-13.304 -57.713)"/>
        </g>
        <path class="cls-44" d="M170.4,230.752h-1.37v-1.37a.648.648,0,0,0-.648-.648h0a.648.648,0,0,0-.648.648v1.37h-1.37a.648.648,0,1,0,0,1.3h1.37v1.37a.648.648,0,0,0,.648.648h0a.648.648,0,0,0,.648-.648v-1.37h1.37a.648.648,0,0,0,0-1.3Z" transform="translate(-13.304 -57.713)"/>
        <path class="cls-44" d="M206.293,222.346h-1.37v-1.37a.648.648,0,0,0-.648-.648h0a.648.648,0,0,0-.648.648v1.37h-1.37a.648.648,0,1,0,0,1.3h1.37v1.37a.648.648,0,0,0,.648.648h0a.648.648,0,0,0,.648-.648v-1.37h1.37a.648.648,0,1,0,0-1.3Z" transform="translate(-13.304 -57.713)"/>
        <path class="cls-44" d="M363.329,336.7h-1.37v-1.37a.648.648,0,0,0-.648-.648h0a.648.648,0,0,0-.648.648v1.37h-1.37a.648.648,0,0,0,0,1.3h1.37v1.37a.648.648,0,0,0,.648.648h0a.648.648,0,0,0,.648-.648V338h1.37a.648.648,0,1,0,0-1.3Z" transform="translate(-13.304 -57.713)"/>
        <path class="cls-44" d="M377.063,121.689h-1.37v-1.37a.648.648,0,0,0-.648-.648h0a.648.648,0,0,0-.648.648v1.37h-1.37a.648.648,0,0,0,0,1.3h1.37v1.37a.648.648,0,0,0,.648.648h0a.648.648,0,0,0,.648-.648v-1.37h1.37a.648.648,0,1,0,0-1.3Z" transform="translate(-13.304 -57.713)"/>
        <path class="cls-44" d="M491.459,133.708h-1.37v-1.37a.648.648,0,0,0-.648-.648h0a.648.648,0,0,0-.648.648v1.37h-1.37a.648.648,0,0,0,0,1.3h1.37v1.37a.648.648,0,0,0,.648.648h0a.648.648,0,0,0,.648-.648V135h1.37a.648.648,0,0,0,0-1.3Z" transform="translate(-13.304 -57.713)"/>
        <path class="cls-44" d="M412.349,228.085h-1.37v-1.37a.648.648,0,0,0-.648-.648h0a.648.648,0,0,0-.648.648v1.37h-1.37a.648.648,0,1,0,0,1.3h1.37v1.37a.648.648,0,0,0,.648.648h0a.648.648,0,0,0,.648-.648v-1.37h1.37a.648.648,0,0,0,0-1.3Z" transform="translate(-13.304 -57.713)"/>
        <path class="cls-44" d="M301.128,245.432h-1.37v-1.37a.648.648,0,0,0-.648-.648h0a.648.648,0,0,0-.648.648v1.37h-1.37a.648.648,0,1,0,0,1.3h1.37v1.37a.648.648,0,0,0,.648.648h0a.648.648,0,0,0,.648-.648v-1.37h1.37a.648.648,0,1,0,0-1.3Z" transform="translate(-13.304 -57.713)"/>
        <path class="cls-44" d="M327.537,276.333h-1.37v-1.37a.648.648,0,0,0-.648-.648h0a.648.648,0,0,0-.648.648v1.37H323.5a.648.648,0,0,0,0,1.3h1.37V279a.648.648,0,0,0,.648.648h0a.648.648,0,0,0,.648-.648v-1.37h1.37a.648.648,0,0,0,0-1.3Z" transform="translate(-13.304 -57.713)"/>
        <path class="cls-44" d="M554.491,175.877h-1.37v-1.37a.648.648,0,0,0-.648-.648h0a.648.648,0,0,0-.648.648v1.37h-1.37a.648.648,0,0,0,0,1.3h1.37v1.37a.648.648,0,0,0,.648.648h0a.648.648,0,0,0,.648-.648v-1.37h1.37a.648.648,0,0,0,0-1.3Z" transform="translate(-13.304 -57.713)"/>
        <path class="cls-44" d="M618.526,198.863h-1.37v-1.37a.648.648,0,0,0-.648-.648h0a.648.648,0,0,0-.648.648v1.37h-1.37a.648.648,0,0,0,0,1.3h1.37v1.37a.648.648,0,0,0,.648.648h0a.648.648,0,0,0,.648-.648v-1.37h1.37a.648.648,0,1,0,0-1.3Z" transform="translate(-13.304 -57.713)"/>
        <path class="cls-44" d="M155.49,173.21h-1.37v-1.37a.648.648,0,0,0-.648-.648h0a.648.648,0,0,0-.648.648v1.37h-1.37a.648.648,0,1,0,0,1.3h1.37v1.37a.648.648,0,0,0,.648.648h0a.648.648,0,0,0,.648-.648v-1.37h1.37a.648.648,0,1,0,0-1.3Z" transform="translate(-13.304 -57.713)"/>
        <path class="cls-44" d="M203.627,116.356h-1.37v-1.37a.648.648,0,0,0-.648-.648h0a.648.648,0,0,0-.648.648v1.37h-1.37a.648.648,0,0,0,0,1.3h1.37v1.37a.648.648,0,0,0,.648.648h0a.648.648,0,0,0,.648-.648v-1.37h1.37a.648.648,0,1,0,0-1.3Z" transform="translate(-13.304 -57.713)"/>
        <path class="cls-44" d="M137.092,219.583h-1.37v-1.37a.648.648,0,0,0-.648-.648h0a.648.648,0,0,0-.648.648v1.37h-1.37a.648.648,0,0,0,0,1.3h1.37v1.37a.648.648,0,0,0,.648.648h0a.648.648,0,0,0,.648-.648v-1.37h1.37a.648.648,0,1,0,0-1.3Z" transform="translate(-13.304 -57.713)"/>
      </g>
      <path class="cls-43" d="M185.316,375.41h-1.37v-1.37a.648.648,0,0,0-.648-.648h0a.648.648,0,0,0-.648.648v1.37h-1.37a.648.648,0,1,0,0,1.3h1.37v1.37a.648.648,0,0,0,.648.648h0a.648.648,0,0,0,.648-.648v-1.37h1.37a.648.648,0,0,0,0-1.3Z" transform="translate(-13.304 -57.713)"/>
      <path class="cls-43" d="M280.189,407.426h-1.37v-1.37a.648.648,0,0,0-.648-.648h0a.648.648,0,0,0-.648.648v1.37h-1.37a.648.648,0,0,0,0,1.3h1.37v1.37a.648.648,0,0,0,.648.648h0a.648.648,0,0,0,.648-.648v-1.37h1.37a.648.648,0,1,0,0-1.3Z" transform="translate(-13.304 -57.713)"/>
    </g>
  </g>
</svg>
